<svg width="1098" height="213" viewBox="0 0 1098 213" fill="none" xmlns="http://www.w3.org/2000/svg">
<path d="M0 191.72C0 183.88 7.12 173.56 21.36 160.76C35.6 147.96 50.24 140.28 65.28 137.72C68.32 133.88 73.28 127.4 80.16 118.28C87.04 109.16 92.64 101.88 96.96 96.44C110.56 78.52 121.44 65 129.6 55.88C96.96 64.52 63.6 68.84 29.52 68.84C22.48 68.84 18.96 67.8 18.96 65.72C18.96 64.6 19.92 63.4 21.84 62.12C23.76 60.84 25.6 60.2 27.36 60.2C36 61.32 44.24 61.88 52.08 61.88C77.84 61.88 105.84 57.4 136.08 48.44C165.04 16.76 189.52 0.91999 209.52 0.91999C217.84 0.91999 222 2.83999 222 6.67999C222 11.96 214.56 19.08 199.68 28.04C184.8 37 165.92 45 143.04 52.04C134.72 61.96 122.72 77.48 107.04 98.6C91.36 119.72 81.68 132.6 78 137.24C92.72 137.88 105.44 142.84 116.16 152.12C120.64 155.8 124.96 159.48 129.12 163.16C139.36 171.96 150.24 176.36 161.76 176.36C167.2 176.36 173.12 174.68 179.52 171.32C186.08 167.8 189.76 166.04 190.56 166.04C191.52 166.04 192 166.44 192 167.24C192 170.12 187.92 173.32 179.76 176.84C171.6 180.2 163.52 181.88 155.52 181.88C147.52 181.88 140.32 180.6 133.92 178.04C127.52 175.32 122.16 172.04 117.84 168.2C113.68 164.36 109.6 160.52 105.6 156.68C96.16 147.24 85.92 142.12 74.88 141.32C60.64 159.4 48.08 173.4 37.2 183.32C26.32 193.24 16.64 198.2 8.16 198.2C2.72 198.2 0 196.04 0 191.72ZM9.84 191.72C15.44 191.72 22.48 187.48 30.96 179C39.44 170.52 49.76 158.28 61.92 142.28C49.44 145.16 36.88 152.2 24.24 163.4C11.76 174.44 5.52 182.76 5.52 188.36C5.52 190.6 6.96 191.72 9.84 191.72ZM205.2 5.23999C190.96 5.23999 172.48 18.12 149.76 43.88C167.68 37.8 182.72 31.32 194.88 24.44C207.2 17.56 213.36 12.28 213.36 8.59999C213.36 6.35999 210.64 5.23999 205.2 5.23999ZM245.663 150.2C244.703 150.2 244.223 149.88 244.223 149.24C244.223 148.44 244.783 147.56 245.903 146.6C251.183 142.28 253.823 138.36 253.823 134.84C253.823 132.6 251.823 131.32 247.823 131C240.623 131.16 231.983 136.36 221.903 146.6C211.983 156.84 207.023 164.52 207.023 169.64C207.023 171.4 207.983 172.28 209.902 172.28C211.983 172.28 214.703 170.92 218.063 168.2C221.103 166.28 226.783 161.48 235.103 153.8C237.023 151.88 238.863 150.92 240.623 150.92C242.863 150.92 243.983 151.96 243.983 154.04C243.983 154.84 243.743 155.48 243.263 155.96C242.783 156.44 241.903 157.48 240.623 159.08C239.343 160.52 238.223 161.88 237.263 163.16C234.383 167.32 232.943 170.04 232.943 171.32C232.943 174.52 234.223 176.12 236.783 176.12C240.143 176.12 246.463 173.08 255.742 167C265.023 160.76 273.503 154.52 281.183 148.28L292.703 139.16C293.823 138.36 294.863 137.96 295.823 137.96C296.783 137.96 297.263 138.52 297.263 139.64V140.12C284.943 150.52 271.903 160.28 258.143 169.4C244.543 178.52 235.583 183.08 231.263 183.08C226.143 183.08 223.583 180.36 223.583 174.92C223.583 173.64 223.823 172.44 224.303 171.32C224.783 170.2 225.023 169.4 225.023 168.92C225.023 168.44 224.863 168.12 224.543 167.96C224.063 167.96 220.943 170.12 215.183 174.44C209.583 178.76 204.623 180.92 200.303 180.92C196.143 180.92 194.062 178.68 194.062 174.2C194.062 169.72 197.023 163.72 202.943 156.2C209.023 148.52 217.103 141.56 227.183 135.32C237.263 129.08 247.103 125.96 256.703 125.96C258.943 125.96 260.783 126.52 262.223 127.64C263.823 128.76 264.622 130.52 264.622 132.92C264.622 135.16 262.303 138.6 257.663 143.24C253.023 147.88 249.023 150.2 245.663 150.2ZM350.976 139.16C352.256 138.36 353.296 137.96 354.096 137.96C355.056 137.96 355.536 138.52 355.536 139.64V140.12C342.896 151.32 329.856 161.16 316.416 169.64C302.976 178.12 291.776 182.36 282.816 182.36C275.776 182.36 272.256 178.2 272.256 169.88C272.256 161.4 277.296 152.2 287.376 142.28C297.616 132.36 308.656 127.4 320.496 127.4C324.016 127.72 326.176 128.28 326.976 129.08C327.936 129.88 328.416 131 328.416 132.44C328.416 133.88 326.896 136.52 323.856 140.36C320.976 144.04 318.336 145.88 315.936 145.88C313.216 145.4 311.856 144.44 311.856 143C311.856 142.36 312.576 141.32 314.016 139.88C316.736 137.48 318.096 135.72 318.096 134.6C318.096 133.48 317.216 132.92 315.456 132.92C309.856 133.08 302.816 137.72 294.336 146.84C285.856 155.8 281.616 163.24 281.616 169.16C281.616 173.64 284.496 175.88 290.256 175.88C296.176 175.88 302.496 173.8 309.216 169.64C321.056 162.44 332.976 153.88 344.976 143.96L350.976 139.16ZM413.169 139.16C414.289 138.36 415.329 137.96 416.289 137.96C417.249 137.96 417.729 138.52 417.729 139.64V140.12C401.089 153.88 387.249 164.2 376.209 171.08C365.169 177.96 355.169 181.4 346.209 181.4C339.009 181.4 335.409 177.88 335.409 170.84C335.409 160.44 340.689 149.8 351.249 138.92C361.809 127.88 370.689 122.36 377.889 122.36C381.889 122.36 383.889 124.6 383.889 129.08C383.089 137.88 370.449 149.72 345.969 164.6V167C345.969 172.28 348.689 174.92 354.129 174.92C359.729 174.92 365.729 173.08 372.129 169.4C384.609 162.04 396.289 153.64 407.169 144.2L413.169 139.16ZM371.649 129.8C368.129 129.8 363.569 132.76 357.969 138.68C352.529 144.6 348.849 151.32 346.929 158.84C354.609 154.2 361.089 149.32 366.369 144.2C371.649 138.92 374.289 135.24 374.289 133.16C374.289 130.92 373.409 129.8 371.649 129.8ZM382.644 153.56C382.644 146.04 384.324 138.36 387.684 130.52C391.044 122.68 394.884 115.8 399.204 109.88C403.684 103.96 409.844 97.32 417.684 89.96C425.684 82.6 432.324 76.84 437.604 72.68C442.884 68.36 450.084 62.84 459.204 56.12C462.084 44.28 466.484 34.36 472.404 26.36C482.644 12.28 493.204 5.23999 504.084 5.23999C508.404 5.23999 510.564 6.59999 510.564 9.32C510.564 13.96 508.244 19.24 503.604 25.16C499.124 31.08 494.244 36.36 488.964 41C483.684 45.48 476.084 51.64 466.164 59.48C464.724 67.64 464.004 76.36 464.004 85.64C464.004 94.92 464.324 102.52 464.964 108.44C479.524 99.96 492.564 95.72 504.084 95.72C515.604 95.72 521.364 100.84 521.364 111.08C521.364 118.44 517.764 127.16 510.564 137.24C503.364 147.32 494.004 156.36 482.484 164.36C492.084 180.04 504.484 187.88 519.684 187.88C525.124 187.88 531.044 186.12 537.444 182.6C544.004 179.24 547.684 177.56 548.484 177.56C549.444 177.56 549.924 177.96 549.924 178.76C549.924 181.64 545.844 184.76 537.684 188.12C529.524 191.64 521.444 193.4 513.444 193.4C498.084 193.4 485.124 185.4 474.564 169.4C456.964 179.8 438.964 185 420.564 185C408.884 185 399.604 182.28 392.724 176.84C386.004 171.4 382.644 163.64 382.644 153.56ZM443.604 126.68C446.644 122.52 450.884 118.36 456.324 114.2C455.524 106.52 455.124 98.76 455.124 90.92C455.124 83.08 455.764 75.08 457.044 66.92C425.524 92.04 406.004 113.32 398.484 130.76C395.124 138.92 393.444 147.08 393.444 155.24C393.444 171.56 403.684 179.72 424.164 179.72C439.364 179.72 455.204 174.6 471.684 164.36C464.484 151.56 459.604 136.36 457.044 118.76C449.044 125.96 444.804 133.72 444.324 142.04C443.684 144.28 442.404 145.4 440.484 145.4C438.724 145.4 437.844 143.72 437.844 140.36C437.684 138.76 437.604 135.08 437.604 129.32C437.604 123.4 437.684 119.16 437.844 116.6C438.004 113.88 438.964 112.52 440.724 112.52C441.684 112.52 442.484 113.08 443.124 114.2C443.924 115.16 444.324 116.44 444.324 118.04C444.324 119.48 444.084 122.36 443.604 126.68ZM512.724 114.92C512.724 106.44 507.524 102.2 497.124 102.2C486.884 102.2 476.324 105.56 465.444 112.28C468.004 131 472.644 146.6 479.364 159.08C489.124 152.04 497.124 144.36 503.364 136.04C509.604 127.72 512.724 120.68 512.724 114.92ZM502.644 12.2C502.644 10.6 501.444 9.79999 499.044 9.79999C494.244 9.79999 488.724 13.08 482.484 19.64C476.404 26.04 471.684 35.96 468.324 49.4C480.004 40.6 488.644 33.4 494.244 27.8C499.844 22.04 502.644 16.84 502.644 12.2ZM660.026 84.44C660.026 84.44 663.546 84.2 670.586 83.72C681.946 83.72 690.346 85.88 695.786 90.2C701.386 94.36 704.186 100.36 704.186 108.2C704.186 115.88 700.666 124.92 693.626 135.32C686.586 145.72 677.466 155.16 666.266 163.64H679.946C685.546 163.64 689.466 163.4 691.706 162.92C693.946 162.44 695.226 162.2 695.546 162.2C697.786 162.2 698.906 163.4 698.906 165.8C698.906 168.2 697.306 169.48 694.106 169.64C681.786 169.64 669.946 169.48 658.586 169.16C640.666 180.52 623.066 186.2 605.786 186.2C597.626 186.2 591.146 184.68 586.346 181.64C581.546 178.6 579.146 175.56 579.146 172.52C579.146 169.32 580.426 166.84 582.986 165.08C585.706 163.32 589.466 162.44 594.266 162.44C612.986 162.44 633.946 162.84 657.146 163.64C666.746 155.8 674.426 146.76 680.186 136.52C685.946 126.12 688.826 116.76 688.826 108.44C688.826 95.16 681.706 88.52 667.466 88.52C661.866 88.52 656.026 89.4 649.946 91.16C644.026 92.92 640.426 94.2 639.146 95C638.026 95.64 637.306 95.96 636.986 95.96C636.026 95.96 635.546 95.32 635.546 94.04C635.546 92.6 637.626 90.92 641.786 89C660.026 80.2 677.866 68.52 695.306 53.96C712.746 39.24 721.466 28.76 721.466 22.52C721.466 19.64 719.226 18.2 714.746 18.2C696.506 18.36 671.466 32.04 639.626 59.24C633.226 75.72 622.666 95.96 607.946 119.96C593.386 143.96 578.106 165.4 562.106 184.28C546.106 203.32 534.186 212.84 526.346 212.84C521.546 212.84 519.146 210.36 519.146 205.4C519.146 194.04 529.866 173.8 551.306 144.68C572.906 115.56 597.306 88.76 624.506 64.28C629.306 52.6 631.706 44.12 631.706 38.84C631.706 33.4 630.426 29.16 627.866 26.12C625.306 22.92 621.546 20.6 616.586 19.16C608.746 17.08 600.426 16.04 591.626 16.04C582.986 16.04 576.346 16.28 571.706 16.76C567.066 17.08 561.386 17.88 554.666 19.16C548.106 20.28 542.746 22.36 538.586 25.4C534.426 28.28 532.346 32.04 532.346 36.68C532.346 41.16 534.586 44.68 539.066 47.24C543.546 49.64 548.986 51.32 555.386 52.28C561.946 53.24 568.426 54.28 574.826 55.4C581.226 56.52 586.666 58.76 591.146 62.12C595.626 65.32 597.866 69.88 597.866 75.8C597.866 77.4 597.466 78.2 596.666 78.2C596.026 78.2 595.466 77.96 594.986 77.48C594.666 77 594.026 76.04 593.066 74.6C591.626 72.52 589.466 70.92 586.586 69.8C583.866 68.68 579.546 67.64 573.626 66.68C567.866 65.56 562.346 64.44 557.066 63.32C551.946 62.04 546.746 60.44 541.466 58.52C536.186 56.6 531.946 53.88 528.746 50.36C525.546 46.84 523.946 42.76 523.946 38.12C523.946 33.32 525.946 29.08 529.946 25.4C533.946 21.72 539.226 18.84 545.786 16.76C559.226 12.76 573.226 10.76 587.786 10.76C625.546 10.76 644.426 20.68 644.426 40.52C644.426 42.28 644.026 44.92 643.226 48.44C675.546 22.36 701.786 9.32 721.946 9.32C730.906 9.32 735.386 12.04 735.386 17.48C735.386 25.32 727.146 36.44 710.666 50.84C694.346 65.24 677.466 76.44 660.026 84.44ZM532.346 205.88C536.986 205.88 549.386 191.08 569.546 161.48C589.866 131.72 606.106 104.04 618.266 78.44C594.266 101.32 572.986 125.16 554.426 149.96C536.026 174.6 526.826 191.4 526.826 200.36C526.826 204.04 528.666 205.88 532.346 205.88ZM649.706 168.92L606.266 167.96C593.946 167.96 587.786 169.8 587.786 173.48C587.786 175.56 589.866 177.48 594.026 179.24C598.186 181.16 602.986 182.12 608.426 182.12C622.666 182.12 636.426 177.72 649.706 168.92ZM778.704 139.16C779.824 138.36 780.864 137.96 781.824 137.96C782.784 137.96 783.264 138.52 783.264 139.64V140.12C766.624 153.88 753.984 163.48 745.344 168.92C734.144 177.4 724.704 181.64 717.024 181.64C710.304 181.64 706.944 177.64 706.944 169.64C706.944 158.92 713.824 143.08 727.584 122.12C741.504 101 757.104 82.04 774.384 65.24C791.664 48.44 804.704 40.04 813.504 40.04C817.504 40.04 819.504 41.8 819.504 45.32C819.504 54.12 808.944 68.68 787.824 89C766.864 109.16 746.224 126.36 725.904 140.6C719.984 151.96 717.024 160.6 717.024 166.52C717.024 172.44 719.104 175.4 723.264 175.4C727.424 175.4 732.864 173 739.584 168.2C750.944 161.48 761.984 153.48 772.704 144.2L778.704 139.16ZM807.504 47.72C800.784 47.72 788.864 57.4 771.744 76.76C754.624 96.12 740.464 115.48 729.264 134.84C747.664 121.72 765.664 105.72 783.264 86.84C800.864 67.8 809.664 55.48 809.664 49.88C809.664 48.44 808.944 47.72 807.504 47.72ZM797.469 158.36C806.429 158.36 817.149 153.32 829.629 143.24L833.709 144.44C818.029 157.56 804.509 164.12 793.149 164.12C791.869 164.12 790.909 164.04 790.269 163.88C785.949 169.16 781.229 173.48 776.109 176.84C770.989 180.04 766.509 181.64 762.669 181.64C756.589 181.64 753.549 178.28 753.549 171.56C753.549 164.68 759.229 155.56 770.589 144.2C768.669 139.56 767.709 134.68 767.709 129.56C767.709 124.44 769.549 120.28 773.229 117.08C776.909 113.88 781.149 112.28 785.949 112.28C790.909 112.28 795.069 113.88 798.429 117.08C801.789 120.28 803.469 124.84 803.469 130.76C803.469 139.88 800.509 149 794.589 158.12C795.229 158.28 796.189 158.36 797.469 158.36ZM789.789 155.96C794.749 147.64 797.229 140.6 797.229 134.84C797.229 128.92 795.789 124.6 792.909 121.88C790.029 119 787.229 117.56 784.509 117.56C778.909 117.56 776.109 120.44 776.109 126.2C776.109 131.96 777.389 137.72 779.949 143.48C782.509 149.08 785.789 153.24 789.789 155.96ZM763.389 170.12C763.389 173.32 765.469 174.92 769.629 174.92C773.789 174.92 779.069 170.68 785.469 162.2C781.149 159.96 777.309 156.04 773.949 150.44C766.909 158.12 763.389 164.68 763.389 170.12ZM882.056 139.16C883.336 138.36 884.376 137.96 885.176 137.96C886.136 137.96 886.616 138.52 886.616 139.64V140.12C874.296 150.52 861.256 160.28 847.496 169.4C833.896 178.52 825.256 183.08 821.576 183.08C817.896 183.08 814.776 182.36 812.216 180.92C809.816 179.64 808.616 178.12 808.616 176.36C808.616 174.6 809.096 173.16 810.056 172.04C811.016 170.76 811.896 170.12 812.696 170.12C813.496 170.12 814.776 171.4 816.536 173.96C818.456 176.36 820.296 177.56 822.056 177.56C825.736 177.56 828.616 173.64 830.696 165.8C832.776 157.96 833.816 152.6 833.816 149.72C833.816 146.68 833.576 145.16 833.096 145.16C832.776 145.16 832.456 145.32 832.136 145.64L825.176 151.16L824.216 147.56C834.296 139.56 840.136 134.2 841.736 131.48C842.696 128.92 844.056 127.64 845.816 127.64C846.936 127.64 847.496 128.04 847.496 128.84C847.496 129.64 846.936 131.4 845.816 134.12C844.696 136.68 843.176 142.6 841.256 151.88C839.496 161.16 838.616 166.52 838.616 167.96C838.616 169.4 839.016 170.12 839.816 170.12C851.016 163.24 862.856 154.68 875.336 144.44L882.056 139.16ZM929.869 139.16C931.149 138.36 932.189 137.96 932.989 137.96C933.949 137.96 934.429 138.52 934.429 139.64V140.12C922.109 150.52 909.069 160.28 895.309 169.4C881.709 178.52 873.069 183.08 869.389 183.08C865.709 183.08 862.589 182.36 860.029 180.92C857.629 179.64 856.429 178.12 856.429 176.36C856.429 174.6 856.909 173.16 857.869 172.04C858.829 170.76 859.709 170.12 860.509 170.12C861.309 170.12 862.589 171.4 864.349 173.96C866.269 176.36 868.109 177.56 869.869 177.56C873.549 177.56 876.429 173.64 878.509 165.8C880.589 157.96 881.629 152.6 881.629 149.72C881.629 146.68 881.389 145.16 880.909 145.16C880.589 145.16 880.269 145.32 879.949 145.64L872.989 151.16L872.029 147.56C882.109 139.56 887.949 134.2 889.549 131.48C890.509 128.92 891.869 127.64 893.629 127.64C894.749 127.64 895.309 128.04 895.309 128.84C895.309 129.64 894.749 131.4 893.629 134.12C892.509 136.68 890.989 142.6 889.069 151.88C887.309 161.16 886.429 166.52 886.429 167.96C886.429 169.4 886.829 170.12 887.629 170.12C898.829 163.24 910.669 154.68 923.149 144.44L929.869 139.16ZM948.641 158.36C957.601 158.36 968.321 153.32 980.801 143.24L984.881 144.44C969.201 157.56 955.681 164.12 944.321 164.12C943.041 164.12 942.081 164.04 941.441 163.88C937.121 169.16 932.401 173.48 927.281 176.84C922.161 180.04 917.681 181.64 913.841 181.64C907.761 181.64 904.721 178.28 904.721 171.56C904.721 164.68 910.401 155.56 921.761 144.2C919.841 139.56 918.881 134.68 918.881 129.56C918.881 124.44 920.721 120.28 924.401 117.08C928.081 113.88 932.321 112.28 937.121 112.28C942.081 112.28 946.241 113.88 949.601 117.08C952.961 120.28 954.641 124.84 954.641 130.76C954.641 139.88 951.681 149 945.761 158.12C946.401 158.28 947.361 158.36 948.641 158.36ZM940.961 155.96C945.921 147.64 948.401 140.6 948.401 134.84C948.401 128.92 946.961 124.6 944.081 121.88C941.201 119 938.401 117.56 935.681 117.56C930.081 117.56 927.281 120.44 927.281 126.2C927.281 131.96 928.561 137.72 931.121 143.48C933.681 149.08 936.961 153.24 940.961 155.96ZM914.561 170.12C914.561 173.32 916.641 174.92 920.801 174.92C924.961 174.92 930.241 170.68 936.641 162.2C932.321 159.96 928.481 156.04 925.121 150.44C918.081 158.12 914.561 164.68 914.561 170.12ZM984.564 137.24L984.084 134.6C984.084 133.8 985.764 133.4 989.124 133.4C991.044 133.4 992.004 134.6 992.004 137C992.004 139.4 989.204 144.76 983.604 153.08C978.164 161.24 975.444 165.48 975.444 165.8C975.444 166.12 975.764 166.28 976.404 166.28C977.044 166.28 984.404 160.68 998.484 149.48C1012.72 138.28 1021.28 132.68 1024.16 132.68C1027.04 132.68 1028.48 133.72 1028.48 135.8C1028.48 137.72 1027.68 139.96 1026.08 142.52C1024.48 144.92 1021.12 149.4 1016 155.96C1010.88 162.36 1008.16 165.8 1007.84 166.28C1007.52 166.76 1007.36 167.32 1007.36 167.96C1007.36 168.6 1007.84 168.92 1008.8 168.92C1009.92 168.92 1017.84 163.48 1032.56 152.6C1047.28 141.72 1055.68 136.28 1057.76 136.28C1059.84 136.28 1060.88 137.16 1060.88 138.92C1060.88 142.12 1057.36 147.72 1050.32 155.72C1043.28 163.72 1039.76 168.84 1039.76 171.08C1039.76 173.16 1040.56 174.2 1042.16 174.2C1043.92 174.2 1048.16 171.96 1054.88 167.48C1066.88 159.48 1077.92 151.4 1088 143.24L1093.28 138.92C1094.56 138.12 1095.6 137.72 1096.4 137.72C1097.36 137.72 1097.84 138.2 1097.84 139.16V139.88C1064.08 168.04 1043.2 182.12 1035.2 182.12C1030.56 182.12 1028.24 180.2 1028.24 176.36C1028.24 173.16 1030.56 168.44 1035.2 162.2C1039.84 155.96 1042.16 152.6 1042.16 152.12C1042.16 151.48 1041.92 151.16 1041.44 151.16C1041.12 151.16 1034.56 155.72 1021.76 164.84C1009.12 173.96 1001.6 178.52 999.204 178.52C998.084 178.52 997.124 178.12 996.324 177.32C995.524 176.36 995.124 175.4 995.124 174.44C995.124 171.56 998.564 165.72 1005.44 156.92C1012.32 148.28 1015.76 143.56 1015.76 142.76C1015.76 141.96 1015.28 141.56 1014.32 141.56C1013.2 141.56 1001.84 150.36 980.244 167.96L968.244 177.56C966.164 179.32 964.564 180.2 963.444 180.2C962.484 180.2 961.524 179.88 960.564 179.24C959.604 178.76 959.124 177.96 959.124 176.84C959.124 175.72 960.484 173 963.204 168.68C966.084 164.36 969.764 159.08 974.244 152.84C981.124 143.56 984.564 138.36 984.564 137.24Z" fill="#586160" fill-opacity="0.3"/>
</svg>
